<svg version="1.1" viewBox="0.0 0.0 976.9711286089239 318.6929133858268" fill="none" stroke="none" stroke-linecap="square" stroke-miterlimit="10" xmlns:xlink="http://www.w3.org/1999/xlink" xmlns="http://www.w3.org/2000/svg"><clipPath id="p.0"><path d="m0 0l976.9711 0l0 318.6929l-976.9711 0l0 -318.6929z" clip-rule="nonzero"/></clipPath><g clip-path="url(#p.0)"><path fill="#000000" fill-opacity="0.0" d="m0 0l976.9711 0l0 318.6929l-976.9711 0z" fill-rule="evenodd"/><path fill="#434343" d="m5.1456695 32.948105l939.07416 0l0 280.39703l-939.07416 0z" fill-rule="evenodd"/><path fill="#353535" d="m944.21985 32.948105l27.602966 -27.60296l0 280.39703l-27.602966 27.602966z" fill-rule="evenodd"/><path fill="#686868" d="m5.1456695 32.948105l27.60296 -27.60296l939.07416 0l-27.602966 27.60296z" fill-rule="evenodd"/><path fill="#000000" fill-opacity="0.0" d="m5.1456695 32.948105l27.60296 -27.60296l939.07416 0l0 280.39703l-27.602966 27.602966l-939.07416 0zm0 0l939.07416 0l27.602966 -27.60296m-27.602966 27.60296l0 280.39703" fill-rule="evenodd"/><path stroke="#000000" stroke-width="8.0" stroke-linejoin="round" stroke-linecap="butt" d="m5.1456695 32.948105l27.60296 -27.60296l939.07416 0l0 280.39703l-27.602966 27.602966l-939.07416 0zm0 0l939.07416 0l27.602966 -27.60296m-27.602966 27.60296l0 280.39703" fill-rule="evenodd"/><path fill="#000000" fill-opacity="0.0" d="m-13.2412615 113.49008l511.74805 -83.30709l31.748047 195.1496l-511.74805 83.30708z" fill-rule="evenodd"/><path fill="#4a86e8" d="m127.175354 159.22874l-3.424759 -21.051361l10.533218 -1.7147064l-1.7111206 -10.517967l10.517807 -1.7121811l-1.7136383 -10.533394l10.533218 -1.7146988l-1.713623 -10.533394l10.517792 -1.7121811l-1.7111206 -10.517975l-42.102043 6.85376l-1.7136307 -10.533394l73.68628 -11.995331l3.424759 21.051361l-10.517807 1.7121887l1.7136383 10.533394l-10.533218 1.7146912l1.713623 10.533394l-10.533218 1.7146988l1.7111206 10.517975l-10.517792 1.7121735l1.713623 10.5334015l42.10205 -6.85376l1.7111206 10.517975l-73.68628 11.995331zm94.7527 -15.424728l-1.7111206 -10.517975l-10.533218 1.7147064l-1.7136383 -10.5334015l10.533218 -1.7146912l-1.7111206 -10.517975l42.10205 -6.85376l-1.713623 -10.533394l-42.10205 6.85376l-1.7136383 -10.533394l52.63527 -8.568451l1.713623 10.533386l10.517822 -1.7121811l6.8494873 42.10273l-63.15306 10.28064zm8.806671 -12.230148l31.584274 -5.1415787l-1.7136536 -10.533394l-31.584244 5.141571l1.713623 10.5334015zm75.41283 -1.4798737l-1.7111511 -10.517975l-10.533203 1.7146988l-5.138397 -31.584763l10.533234 -1.7146912l-1.713623 -10.533394l63.153046 -10.28064l1.713623 10.533394l-52.635254 8.568451l5.138397 31.584763l52.635254 -8.568459l1.7111206 10.517975l-63.153046 10.28064z" fill-rule="nonzero"/><path fill="#4a86e8" d="m69.93191 272.2953l-1.7111282 -10.517944l-10.533218 1.7146912l-10.276772 -63.169525l21.051018 -3.42688l6.8520203 42.11815l10.533218 -1.7146912l-6.8520126 -42.11815l10.517799 -1.7121887l6.8520126 42.11815l10.533218 -1.7146912l-6.8520126 -42.11815l21.051018 -3.42688l10.276772 63.16951l-10.517799 1.7121887l1.7111206 10.51796l-10.533218 1.7146912l-1.7111206 -10.51796l-10.533218 1.7147064l-1.7136383 -10.5334015l-10.517799 1.7121887l1.7136383 10.5334015l-10.533226 1.7146912l1.7111282 10.517975l-10.517799 1.7121582zm84.219475 -13.710022l-1.7111206 -10.51796l-10.533218 1.7146912l-1.713623 -10.5334015l10.533218 -1.7146912l-1.7111206 -10.517975l42.102036 -6.85376l-1.7136383 -10.533386l-42.102036 6.85376l-1.713623 -10.5334015l52.635254 -8.568451l1.713623 10.5334015l10.517807 -1.7121887l6.8495026 42.102722l-63.15306 10.28064zm8.806686 -12.230148l31.584229 -5.141571l-1.713623 -10.5334015l-31.584244 5.141571l1.7136383 10.5334015zm86.18956 -68.06085l-1.713623 -10.533386l21.05101 -3.42688l1.713623 10.533386l-21.05101 3.42688zm-10.776749 66.58098l-1.7111359 -10.517975l21.05101 -3.42688l-5.1383667 -31.584747l-10.533218 1.7146912l-1.7136383 -10.5334015l31.584229 -5.141571l6.8520203 42.11815l21.051025 -3.42688l1.7111206 10.517975l-63.153046 10.28064zm105.27048 -17.136902l-6.849518 -42.102737l-21.050995 3.42688l-1.7136536 -10.533386l21.051025 -3.42688l-3.4247437 -21.051361l21.051025 -3.42688l3.4247437 21.051361l21.051025 -3.42688l1.713623 10.533386l-21.051025 3.42688l6.849518 42.102737l-21.051025 3.42688zm63.168488 -10.283157l-1.7111206 -10.517975l-10.533234 1.7147064l-5.1383667 -31.584763l10.533203 -1.7146912l-1.713623 -10.5334015l52.635254 -8.568451l1.713623 10.533386l10.517822 -1.7121735l3.4247437 21.051361l-52.635254 8.568451l1.713623 10.5334015l42.117462 -6.8562775l1.7111206 10.517975l-52.635254 8.568451zm5.3819275 -33.281525l31.584229 -5.141571l-1.713623 -10.533386l-31.584259 5.141571l1.7136536 10.533386z" fill-rule="nonzero"/><path fill="#000000" fill-opacity="0.0" d="m485.58792 64.661415l486.23624 0l0 221.38583l-486.23624 0z" fill-rule="evenodd"/><path fill="#27c608" d="m578.722 101.48954l0 -4.15625l-4.15625 0l0 -4.171875l-4.171875 0l0 -4.15625l-4.15625 0l0 -4.171875l4.15625 0l0 -4.171875l4.171875 0l0 -4.15625l4.15625 0l0 -4.171875l8.34375 0l0 4.171875l-4.171875 0l0 4.15625l-4.171875 0l0 4.171875l-4.15625 0l0 4.171875l4.15625 0l0 4.15625l4.171875 0l0 4.171875l4.171875 0l0 4.15625l-8.34375 0zm20.843689 0l0 -4.15625l-4.171875 0l0 -4.171875l8.328125 0l0 4.171875l12.5 0l0 -8.328125l-16.65625 0l0 -4.171875l-4.171875 0l0 -8.328125l4.171875 0l0 -4.171875l20.828125 0l0 4.171875l4.15625 0l0 4.15625l-8.328125 0l0 -4.15625l-12.5 0l0 8.328125l16.671875 0l0 4.171875l4.15625 0l0 8.328125l-4.15625 0l0 4.15625l-20.828125 0zm33.328064 0l0 -4.15625l-4.171875 0l0 -12.5l4.171875 0l0 -4.171875l20.828125 0l0 4.171875l4.15625 0l0 12.5l-4.15625 0l0 4.15625l-20.828125 0zm4.15625 -4.15625l12.5 0l0 -12.5l-12.5 0l0 12.5zm37.49994 4.15625l0 -16.65625l-8.328125 0l0 -4.171875l8.328125 0l0 -4.15625l4.15625 0l0 -4.171875l12.5 0l0 4.171875l-8.328125 0l0 4.15625l8.328125 0l0 4.171875l-8.328125 0l0 16.65625l-8.328125 0zm33.328064 0l0 -16.65625l-8.328125 0l0 -4.171875l8.328125 0l0 -8.328125l8.328125 0l0 8.328125l8.328125 0l0 4.171875l-8.328125 0l0 16.65625l-8.328125 0zm29.156189 -4.15625l4.171875 0l0 4.15625l-8.328125 0l0 -4.15625l-4.171875 0l0 -16.671875l8.328125 0l0 16.671875zm8.328125 -16.671875l0 16.671875l-4.15625 0l0 -16.671875l4.15625 0zm12.5 0l0 16.671875l-4.15625 0l0 4.15625l-8.34375 0l0 -4.15625l4.171875 0l0 -16.671875l8.328125 0zm8.343689 20.828125l0 -4.15625l-4.171875 0l0 -4.171875l4.171875 0l0 -4.15625l16.65625 0l0 -4.171875l-16.65625 0l0 -4.171875l20.828125 0l0 4.171875l4.15625 0l0 16.65625l-24.984375 0zm4.15625 -4.15625l12.5 0l0 -4.171875l-12.5 0l0 4.171875zm37.49994 -12.5l4.15625 0l0 4.171875l-4.15625 0l0 12.484375l-8.328125 0l0 -20.828125l8.328125 0l0 4.171875zm16.65625 -4.171875l0 4.171875l-12.5 0l0 -4.171875l12.5 0zm8.343689 20.828125l0 -4.15625l-4.171875 0l0 -12.5l4.171875 0l0 -4.171875l20.828125 0l0 4.171875l4.15625 0l0 8.328125l-20.828125 0l0 4.171875l16.671875 0l0 4.15625l-20.828125 0zm4.15625 -12.484375l12.5 0l0 -4.171875l-12.5 0l0 4.171875z" fill-rule="nonzero"/><path fill="#434343" d="m870.34644 101.48954l0 -8.328125l8.328125 0l0 8.328125l-8.328125 0z" fill-rule="nonzero"/><path fill="#27c608" d="m528.7377 141.48955l0 -29.156258l29.15625 0l0 4.171875l-20.828125 0l0 8.328125l16.671875 0l0 4.1718826l-16.671875 0l0 8.328125l20.828125 0l0 4.15625l-29.15625 0zm33.328064 0l0 -20.828133l25.0 0l0 4.171875l4.15625 0l0 16.656258l-8.328125 0l0 -16.656258l-12.5 0l0 16.656258l-8.328125 0zm37.49994 4.171875l0 -4.171875l16.65625 0l0 -4.15625l-16.65625 0l0 -4.171875l-4.171875 0l0 -8.328133l4.171875 0l0 -4.171875l24.984375 0l0 20.828133l-4.15625 0l0 4.171875l-20.828125 0zm4.15625 -12.5l12.5 0l0 -8.328133l-12.5 0l0 8.328133zm37.49994 -16.656258l0 -4.171875l8.328125 0l0 4.171875l-8.328125 0zm-8.328125 24.984383l0 -4.15625l8.328125 0l0 -12.500008l-4.171875 0l0 -4.171875l12.5 0l0 16.671883l8.328125 0l0 4.15625l-24.984375 0zm29.156189 0l0 -20.828133l25.0 0l0 4.171875l4.15625 0l0 16.656258l-8.328125 0l0 -16.656258l-12.5 0l0 16.656258l-8.328125 0zm37.49994 0l0 -4.15625l-4.171875 0l0 -12.500008l4.171875 0l0 -4.171875l20.828125 0l0 4.171875l4.15625 0l0 8.328133l-20.828125 0l0 4.171875l16.671875 0l0 4.15625l-20.828125 0zm4.15625 -12.484375l12.5 0l0 -4.1718826l-12.5 0l0 4.1718826zm29.171814 12.484375l0 -4.15625l-4.171875 0l0 -12.500008l4.171875 0l0 -4.171875l20.828125 0l0 4.171875l4.15625 0l0 8.328133l-20.828125 0l0 4.171875l16.671875 0l0 4.15625l-20.828125 0zm4.15625 -12.484375l12.5 0l0 -4.1718826l-12.5 0l0 4.1718826zm37.49994 -4.1718826l4.15625 0l0 4.1718826l-4.15625 0l0 12.484375l-8.328125 0l0 -20.828133l8.328125 0l0 4.171875zm16.65625 -4.171875l0 4.171875l-12.5 0l0 -4.171875l12.5 0zm16.671814 -4.15625l0 -4.171875l8.328125 0l0 4.171875l-8.328125 0zm-8.328125 24.984383l0 -4.15625l8.328125 0l0 -12.500008l-4.171875 0l0 -4.171875l12.5 0l0 16.671883l8.328125 0l0 4.15625l-24.984375 0zm29.156189 0l0 -20.828133l25.0 0l0 4.171875l4.15625 0l0 16.656258l-8.328125 0l0 -16.656258l-12.5 0l0 16.656258l-8.328125 0zm37.49994 4.171875l0 -4.171875l16.65625 0l0 -4.15625l-16.65625 0l0 -4.171875l-4.171875 0l0 -8.328133l4.171875 0l0 -4.171875l24.984375 0l0 20.828133l-4.15625 0l0 4.171875l-20.828125 0zm4.15625 -12.5l12.5 0l0 -8.328133l-12.5 0l0 8.328133zm29.171814 8.328125l0 -4.15625l4.15625 0l0 -4.171875l4.171875 0l0 -4.15625l4.15625 0l0 -4.1718826l-4.15625 0l0 -4.171875l-4.171875 0l0 -4.15625l-4.15625 0l0 -4.171875l8.328125 0l0 4.171875l4.15625 0l0 4.15625l4.171875 0l0 4.171875l4.171875 0l0 4.1718826l-4.171875 0l0 4.15625l-4.171875 0l0 4.171875l-4.15625 0l0 4.15625l-8.328125 0z" fill-rule="nonzero"/><path fill="#27c608" d="m545.3939 221.48955l0 -4.15625l-4.15625 0l0 -4.171875l-4.171875 0l0 -4.15625l-4.15625 0l0 -4.171875l4.15625 0l0 -4.171875l4.171875 0l0 -4.15625l4.15625 0l0 -4.171875l8.34375 0l0 4.171875l-4.171875 0l0 4.15625l-4.171875 0l0 4.171875l-4.15625 0l0 4.171875l4.15625 0l0 4.15625l4.171875 0l0 4.171875l4.171875 0l0 4.15625l-8.34375 0zm20.843689 0l0 -4.15625l-4.171875 0l0 -25.0l8.328125 0l0 25.0l12.5 0l0 -25.0l8.328125 0l0 25.0l-4.15625 0l0 4.15625l-20.828125 0zm29.156189 0l0 -20.828125l25.0 0l0 4.171875l4.15625 0l0 16.65625l-8.328125 0l0 -16.65625l-12.5 0l0 16.65625l-8.328125 0zm45.828064 -24.984375l0 -4.171875l8.328125 0l0 4.171875l-8.328125 0zm-8.328125 24.984375l0 -4.15625l8.328125 0l0 -12.5l-4.171875 0l0 -4.171875l12.5 0l0 16.671875l8.328125 0l0 4.15625l-24.984375 0zm41.65619 0l0 -4.15625l-4.171875 0l0 -4.171875l-4.15625 0l0 -12.5l8.328125 0l0 12.5l8.328125 0l0 -12.5l8.328125 0l0 12.5l-4.15625 0l0 4.171875l-4.171875 0l0 4.15625l-8.328125 0zm24.999939 0l0 -4.15625l-4.171875 0l0 -12.5l4.171875 0l0 -4.171875l20.828125 0l0 4.171875l4.15625 0l0 8.328125l-20.828125 0l0 4.171875l16.671875 0l0 4.15625l-20.828125 0zm4.15625 -12.484375l12.5 0l0 -4.171875l-12.5 0l0 4.171875zm37.49994 -4.171875l4.15625 0l0 4.171875l-4.15625 0l0 12.484375l-8.328125 0l0 -20.828125l8.328125 0l0 4.171875zm16.65625 -4.171875l0 4.171875l-12.5 0l0 -4.171875l12.5 0zm4.171814 20.828125l0 -4.15625l20.828125 0l0 -4.171875l-16.65625 0l0 -4.15625l-4.171875 0l0 -4.171875l4.171875 0l0 -4.171875l20.828125 0l0 4.171875l-16.671875 0l0 4.171875l16.671875 0l0 4.15625l4.15625 0l0 4.171875l-4.15625 0l0 4.15625l-25.0 0zm45.828064 -24.984375l0 -4.171875l8.328125 0l0 4.171875l-8.328125 0zm-8.328125 24.984375l0 -4.15625l8.328125 0l0 -12.5l-4.171875 0l0 -4.171875l12.5 0l0 16.671875l8.328125 0l0 4.15625l-24.984375 0zm41.65619 0l0 -16.65625l-8.328125 0l0 -4.171875l8.328125 0l0 -8.328125l8.328125 0l0 8.328125l8.328125 0l0 4.171875l-8.328125 0l0 16.65625l-8.328125 0zm24.999939 4.171875l0 -4.171875l16.65625 0l0 -4.15625l-16.65625 0l0 -4.171875l-4.171875 0l0 -12.5l8.328125 0l0 12.5l12.5 0l0 -12.5l8.328125 0l0 20.828125l-4.15625 0l0 4.171875l-20.828125 0z" fill-rule="nonzero"/><path fill="#434343" d="m903.6745 221.48955l0 -8.328125l8.328125 0l0 8.328125l-8.328125 0z" fill-rule="nonzero"/><path fill="#27c608" d="m532.90955 261.48953l0 -4.15625l-4.171875 0l0 -12.499985l4.171875 0l0 -4.171875l20.828125 0l0 4.171875l4.15625 0l0 12.499985l-4.15625 0l0 4.15625l-20.828125 0zm4.15625 -4.15625l12.5 0l0 -12.499985l-12.5 0l0 12.499985zm37.49994 4.15625l0 -16.656235l-8.328125 0l0 -4.171875l8.328125 0l0 -4.15625l4.15625 0l0 -4.171875l12.5 0l0 4.171875l-8.328125 0l0 4.15625l8.328125 0l0 4.171875l-8.328125 0l0 16.656235l-8.328125 0zm58.328003 0l0 -4.15625l-4.171875 0l0 -24.999985l8.328125 0l0 16.671875l4.171875 0l0 -16.671875l4.15625 0l0 16.671875l4.171875 0l0 -16.671875l8.328125 0l0 24.999985l-4.15625 0l0 4.15625l-4.171875 0l0 -4.15625l-4.171875 0l0 -4.1718597l-4.15625 0l0 4.1718597l-4.171875 0l0 4.15625l-4.15625 0zm33.328064 0l0 -4.15625l-4.171875 0l0 -4.1718597l4.171875 0l0 -4.15625l16.65625 0l0 -4.171875l-16.65625 0l0 -4.171875l20.828125 0l0 4.171875l4.15625 0l0 16.656235l-24.984375 0zm4.15625 -4.15625l12.5 0l0 -4.1718597l-12.5 0l0 4.1718597zm37.49994 4.15625l0 -16.656235l-8.328125 0l0 -4.171875l8.328125 0l0 -8.328125l8.328125 0l0 8.328125l8.328125 0l0 4.171875l-8.328125 0l0 16.656235l-8.328125 0zm24.999939 0l0 -4.15625l-4.171875 0l0 -12.499985l4.171875 0l0 -4.171875l20.828125 0l0 4.171875l4.15625 0l0 8.328125l-20.828125 0l0 4.1718597l16.671875 0l0 4.15625l-20.828125 0zm4.15625 -12.48436l12.5 0l0 -4.171875l-12.5 0l0 4.171875zm37.49994 -4.171875l4.15625 0l0 4.171875l-4.15625 0l0 12.48436l-8.328125 0l0 -20.82811l8.328125 0l0 4.171875zm16.65625 -4.171875l0 4.171875l-12.5 0l0 -4.171875l12.5 0zm8.343689 20.82811l0 -4.15625l8.328125 0l0 -20.82811l-4.171875 0l0 -4.171875l12.5 0l0 24.999985l8.328125 0l0 4.15625l-24.984375 0zm33.328064 0l0 -4.15625l-4.171875 0l0 -12.499985l4.171875 0l0 -4.171875l20.828125 0l0 4.171875l4.15625 0l0 12.499985l-4.15625 0l0 4.15625l-20.828125 0zm4.15625 -4.15625l12.5 0l0 -12.499985l-12.5 0l0 12.499985zm29.171814 4.15625l0 -4.15625l-4.171875 0l0 -12.499985l4.171875 0l0 -4.171875l20.828125 0l0 4.171875l4.15625 0l0 12.499985l-4.15625 0l0 4.15625l-20.828125 0zm4.15625 -4.15625l12.5 0l0 -12.499985l-12.5 0l0 12.499985zm29.171814 4.15625l0 -4.15625l4.15625 0l0 -4.1718597l4.171875 0l0 -4.15625l4.15625 0l0 -4.171875l-4.15625 0l0 -4.171875l-4.171875 0l0 -4.15625l-4.15625 0l0 -4.171875l8.328125 0l0 4.171875l4.15625 0l0 4.15625l4.171875 0l0 4.171875l4.171875 0l0 4.171875l-4.171875 0l0 4.15625l-4.171875 0l0 4.1718597l-4.15625 0l0 4.15625l-8.328125 0z" fill-rule="nonzero"/></g></svg>